<mxfile host="app.diagrams.net" modified="2021-10-06T16:22:28.723Z" agent="5.0 (Windows NT 10.0; Win64; x64) AppleWebKit/537.36 (KHTML, like Gecko) Chrome/94.0.4606.71 Safari/537.36" etag="DXRz-zoBwOsZCdnWVRO4" version="15.3.4" type="github">
  <diagram id="SW5UQKwQCmCfAAila87w" name="Page-1">
    <mxGraphModel dx="1865" dy="547" grid="1" gridSize="10" guides="0" tooltips="1" connect="1" arrows="0" fold="1" page="1" pageScale="1" pageWidth="827" pageHeight="1169" math="0" shadow="0">
      <root>
        <mxCell id="0" />
        <mxCell id="1" parent="0" />
        <mxCell id="NeIWhFOcFtn_27Gf-2zO-5" value="" style="shape=mxgraph.cisco.routers.10700;sketch=0;html=1;pointerEvents=1;dashed=0;fillColor=#036897;strokeColor=#ffffff;strokeWidth=2;verticalLabelPosition=bottom;verticalAlign=top;align=center;outlineConnect=0;hachureGap=4;" vertex="1" parent="1">
          <mxGeometry x="379" y="319" width="78" height="53" as="geometry" />
        </mxCell>
        <mxCell id="NeIWhFOcFtn_27Gf-2zO-8" value="" style="points=[];aspect=fixed;html=1;align=center;shadow=0;dashed=0;image;image=img/lib/allied_telesis/switch/Switch_24_port_L2.svg;hachureGap=4;pointerEvents=0;" vertex="1" parent="1">
          <mxGeometry x="210" y="322" width="74.4" height="51" as="geometry" />
        </mxCell>
        <mxCell id="NeIWhFOcFtn_27Gf-2zO-9" value="" style="points=[];aspect=fixed;html=1;align=center;shadow=0;dashed=0;image;image=img/lib/allied_telesis/switch/Switch_24_port_L2.svg;hachureGap=4;pointerEvents=0;" vertex="1" parent="1">
          <mxGeometry x="379" y="489" width="74.4" height="51" as="geometry" />
        </mxCell>
        <mxCell id="NeIWhFOcFtn_27Gf-2zO-10" value="" style="points=[];aspect=fixed;html=1;align=center;shadow=0;dashed=0;image;image=img/lib/allied_telesis/switch/Switch_24_port_L2.svg;hachureGap=4;pointerEvents=0;" vertex="1" parent="1">
          <mxGeometry x="560" y="321" width="74.4" height="51" as="geometry" />
        </mxCell>
        <mxCell id="NeIWhFOcFtn_27Gf-2zO-13" value="" style="points=[];aspect=fixed;html=1;align=center;shadow=0;dashed=0;image;image=img/lib/allied_telesis/computer_and_terminals/Personal_Computer.svg;hachureGap=4;pointerEvents=0;" vertex="1" parent="1">
          <mxGeometry x="80" y="160" width="45.6" height="61.800000000000004" as="geometry" />
        </mxCell>
        <mxCell id="NeIWhFOcFtn_27Gf-2zO-14" value="" style="points=[];aspect=fixed;html=1;align=center;shadow=0;dashed=0;image;image=img/lib/allied_telesis/computer_and_terminals/Personal_Computer.svg;hachureGap=4;pointerEvents=0;" vertex="1" parent="1">
          <mxGeometry x="80" y="280" width="45.6" height="61.800000000000004" as="geometry" />
        </mxCell>
        <mxCell id="NeIWhFOcFtn_27Gf-2zO-15" value="" style="points=[];aspect=fixed;html=1;align=center;shadow=0;dashed=0;image;image=img/lib/allied_telesis/computer_and_terminals/Server_Desktop.svg;hachureGap=4;pointerEvents=0;" vertex="1" parent="1">
          <mxGeometry x="310" y="590" width="42.599999999999994" height="54" as="geometry" />
        </mxCell>
        <mxCell id="NeIWhFOcFtn_27Gf-2zO-16" value="" style="points=[];aspect=fixed;html=1;align=center;shadow=0;dashed=0;image;image=img/lib/allied_telesis/computer_and_terminals/Server_Desktop.svg;hachureGap=4;pointerEvents=0;" vertex="1" parent="1">
          <mxGeometry x="480" y="590" width="42.599999999999994" height="54" as="geometry" />
        </mxCell>
        <mxCell id="NeIWhFOcFtn_27Gf-2zO-17" value="" style="points=[];aspect=fixed;html=1;align=center;shadow=0;dashed=0;image;image=img/lib/allied_telesis/computer_and_terminals/Server_Desktop.svg;hachureGap=4;pointerEvents=0;" vertex="1" parent="1">
          <mxGeometry x="80" y="410" width="42.599999999999994" height="54" as="geometry" />
        </mxCell>
        <mxCell id="NeIWhFOcFtn_27Gf-2zO-18" value="" style="points=[];aspect=fixed;html=1;align=center;shadow=0;dashed=0;image;image=img/lib/allied_telesis/computer_and_terminals/Server_Desktop.svg;hachureGap=4;pointerEvents=0;" vertex="1" parent="1">
          <mxGeometry x="730" y="310" width="47.33" height="60" as="geometry" />
        </mxCell>
        <mxCell id="NeIWhFOcFtn_27Gf-2zO-19" value="" style="endArrow=none;html=1;startSize=14;endSize=14;sourcePerimeterSpacing=8;targetPerimeterSpacing=8;" edge="1" parent="1" source="NeIWhFOcFtn_27Gf-2zO-8" target="NeIWhFOcFtn_27Gf-2zO-5">
          <mxGeometry width="50" height="50" relative="1" as="geometry">
            <mxPoint x="340" y="410" as="sourcePoint" />
            <mxPoint x="390" y="360" as="targetPoint" />
          </mxGeometry>
        </mxCell>
        <mxCell id="NeIWhFOcFtn_27Gf-2zO-21" value="" style="endArrow=none;html=1;startSize=14;endSize=14;sourcePerimeterSpacing=8;targetPerimeterSpacing=8;" edge="1" parent="1" source="NeIWhFOcFtn_27Gf-2zO-5" target="NeIWhFOcFtn_27Gf-2zO-10">
          <mxGeometry width="50" height="50" relative="1" as="geometry">
            <mxPoint x="470.0000000000001" y="347.9207259953161" as="sourcePoint" />
            <mxPoint x="548.6" y="347.00035128805615" as="targetPoint" />
          </mxGeometry>
        </mxCell>
        <mxCell id="NeIWhFOcFtn_27Gf-2zO-23" value="" style="endArrow=none;html=1;startSize=14;endSize=14;sourcePerimeterSpacing=8;targetPerimeterSpacing=8;" edge="1" parent="1" source="NeIWhFOcFtn_27Gf-2zO-15" target="NeIWhFOcFtn_27Gf-2zO-9">
          <mxGeometry width="50" height="50" relative="1" as="geometry">
            <mxPoint x="270" y="540" as="sourcePoint" />
            <mxPoint x="320" y="490" as="targetPoint" />
          </mxGeometry>
        </mxCell>
        <mxCell id="NeIWhFOcFtn_27Gf-2zO-24" value="" style="endArrow=none;html=1;startSize=14;endSize=14;sourcePerimeterSpacing=8;targetPerimeterSpacing=8;" edge="1" parent="1" source="NeIWhFOcFtn_27Gf-2zO-16" target="NeIWhFOcFtn_27Gf-2zO-9">
          <mxGeometry width="50" height="50" relative="1" as="geometry">
            <mxPoint x="420" y="530" as="sourcePoint" />
            <mxPoint x="470" y="480" as="targetPoint" />
          </mxGeometry>
        </mxCell>
        <mxCell id="NeIWhFOcFtn_27Gf-2zO-25" value="" style="endArrow=none;html=1;startSize=14;endSize=14;sourcePerimeterSpacing=8;targetPerimeterSpacing=8;entryX=-0.068;entryY=0.617;entryDx=0;entryDy=0;entryPerimeter=0;" edge="1" parent="1" source="NeIWhFOcFtn_27Gf-2zO-10" target="NeIWhFOcFtn_27Gf-2zO-18">
          <mxGeometry width="50" height="50" relative="1" as="geometry">
            <mxPoint x="650" y="320" as="sourcePoint" />
            <mxPoint x="700" y="270" as="targetPoint" />
          </mxGeometry>
        </mxCell>
        <mxCell id="NeIWhFOcFtn_27Gf-2zO-26" value="" style="endArrow=none;html=1;startSize=14;endSize=14;sourcePerimeterSpacing=8;targetPerimeterSpacing=8;exitX=0.974;exitY=1.071;exitDx=0;exitDy=0;exitPerimeter=0;" edge="1" parent="1" source="NeIWhFOcFtn_27Gf-2zO-13" target="NeIWhFOcFtn_27Gf-2zO-8">
          <mxGeometry width="50" height="50" relative="1" as="geometry">
            <mxPoint x="200" y="210" as="sourcePoint" />
            <mxPoint x="250" y="160" as="targetPoint" />
          </mxGeometry>
        </mxCell>
        <mxCell id="NeIWhFOcFtn_27Gf-2zO-27" value="" style="endArrow=none;html=1;startSize=14;endSize=14;sourcePerimeterSpacing=8;targetPerimeterSpacing=8;" edge="1" parent="1" target="NeIWhFOcFtn_27Gf-2zO-8">
          <mxGeometry width="50" height="50" relative="1" as="geometry">
            <mxPoint x="130" y="440" as="sourcePoint" />
            <mxPoint x="210" y="420" as="targetPoint" />
          </mxGeometry>
        </mxCell>
        <mxCell id="NeIWhFOcFtn_27Gf-2zO-28" value="" style="endArrow=none;html=1;startSize=14;endSize=14;sourcePerimeterSpacing=8;targetPerimeterSpacing=8;" edge="1" parent="1" source="NeIWhFOcFtn_27Gf-2zO-14" target="NeIWhFOcFtn_27Gf-2zO-8">
          <mxGeometry width="50" height="50" relative="1" as="geometry">
            <mxPoint x="140" y="390" as="sourcePoint" />
            <mxPoint x="190" y="340" as="targetPoint" />
          </mxGeometry>
        </mxCell>
        <mxCell id="NeIWhFOcFtn_27Gf-2zO-31" value="Router.tp3&lt;br&gt;client 1 :10.3.0.62/26&lt;br&gt;&lt;div style=&quot;text-align: left&quot;&gt;server1 :10.3.0.254/25&lt;/div&gt;&lt;div style=&quot;text-align: left&quot;&gt;server2:&amp;nbsp;10.3.0.78/28&lt;/div&gt;" style="text;html=1;strokeColor=none;fillColor=none;align=center;verticalAlign=middle;whiteSpace=wrap;rounded=0;hachureGap=4;pointerEvents=0;" vertex="1" parent="1">
          <mxGeometry x="330" y="250" width="170" height="50" as="geometry" />
        </mxCell>
        <mxCell id="NeIWhFOcFtn_27Gf-2zO-33" value="" style="ellipse;whiteSpace=wrap;html=1;hachureGap=4;pointerEvents=0;sketch=0;strokeWidth=2;fillColor=none;strokeColor=#CCCCFF;" vertex="1" parent="1">
          <mxGeometry x="-64" y="140" width="554" height="351" as="geometry" />
        </mxCell>
        <mxCell id="NeIWhFOcFtn_27Gf-2zO-34" value="" style="ellipse;whiteSpace=wrap;html=1;sketch=0;hachureGap=4;pointerEvents=0;strokeWidth=2;rotation=90;fillColor=none;strokeColor=#66FF66;" vertex="1" parent="1">
          <mxGeometry x="174" y="377" width="486" height="352" as="geometry" />
        </mxCell>
        <mxCell id="NeIWhFOcFtn_27Gf-2zO-36" value="" style="ellipse;whiteSpace=wrap;html=1;hachureGap=4;pointerEvents=0;sketch=0;strokeWidth=2;fillColor=none;strokeColor=#FF9999;" vertex="1" parent="1">
          <mxGeometry x="330" y="140" width="560" height="351" as="geometry" />
        </mxCell>
        <mxCell id="NeIWhFOcFtn_27Gf-2zO-37" value="&lt;b&gt;réseau : client 1&lt;/b&gt;" style="text;html=1;strokeColor=none;fillColor=none;align=center;verticalAlign=middle;whiteSpace=wrap;rounded=0;sketch=0;hachureGap=4;pointerEvents=0;" vertex="1" parent="1">
          <mxGeometry x="146" y="150" width="110" height="20" as="geometry" />
        </mxCell>
        <mxCell id="NeIWhFOcFtn_27Gf-2zO-38" value="&lt;b&gt;réseau : server 1&lt;/b&gt;" style="text;html=1;strokeColor=none;fillColor=none;align=center;verticalAlign=middle;whiteSpace=wrap;rounded=0;sketch=0;hachureGap=4;pointerEvents=0;" vertex="1" parent="1">
          <mxGeometry x="570" y="150" width="110" height="20" as="geometry" />
        </mxCell>
        <mxCell id="NeIWhFOcFtn_27Gf-2zO-39" value="&lt;b&gt;réseau : server 2&lt;/b&gt;" style="text;html=1;strokeColor=none;fillColor=none;align=center;verticalAlign=middle;whiteSpace=wrap;rounded=0;sketch=0;hachureGap=4;pointerEvents=0;" vertex="1" parent="1">
          <mxGeometry x="360" y="740" width="110" height="20" as="geometry" />
        </mxCell>
        <mxCell id="NeIWhFOcFtn_27Gf-2zO-40" value="marcel.client1.tp3&lt;br&gt;adresse en DHCP" style="text;html=1;strokeColor=none;fillColor=none;align=center;verticalAlign=middle;whiteSpace=wrap;rounded=0;sketch=0;hachureGap=4;pointerEvents=0;" vertex="1" parent="1">
          <mxGeometry x="-20" y="200" width="100" height="50" as="geometry" />
        </mxCell>
        <mxCell id="NeIWhFOcFtn_27Gf-2zO-41" value="johnny.client1.tp3&lt;br&gt;adresse en DHCP" style="text;html=1;strokeColor=none;fillColor=none;align=center;verticalAlign=middle;whiteSpace=wrap;rounded=0;sketch=0;hachureGap=4;pointerEvents=0;" vertex="1" parent="1">
          <mxGeometry x="-40" y="285.9" width="100" height="50" as="geometry" />
        </mxCell>
        <mxCell id="NeIWhFOcFtn_27Gf-2zO-42" value="dhcp.client1.tp3&lt;br&gt;10.3.0.2/26" style="text;whiteSpace=wrap;html=1;" vertex="1" parent="1">
          <mxGeometry x="-10" y="373" width="120" height="37" as="geometry" />
        </mxCell>
        <mxCell id="NeIWhFOcFtn_27Gf-2zO-43" value="carte host only&lt;br&gt;10.3.0.1/26" style="text;html=1;strokeColor=none;fillColor=none;align=left;verticalAlign=middle;whiteSpace=wrap;rounded=0;sketch=0;hachureGap=4;pointerEvents=0;" vertex="1" parent="1">
          <mxGeometry x="220" y="290" width="100" height="20" as="geometry" />
        </mxCell>
        <mxCell id="NeIWhFOcFtn_27Gf-2zO-44" value="carte host only&lt;br&gt;10.3.0.129/25" style="text;html=1;strokeColor=none;fillColor=none;align=left;verticalAlign=middle;whiteSpace=wrap;rounded=0;sketch=0;hachureGap=4;pointerEvents=0;" vertex="1" parent="1">
          <mxGeometry x="560" y="290" width="100" height="20" as="geometry" />
        </mxCell>
        <mxCell id="NeIWhFOcFtn_27Gf-2zO-46" value="&lt;span style=&quot;text-align: left&quot;&gt;dns1.server1.tp3&lt;br&gt;10.3.0.130/25&lt;br&gt;port : 53 UDP&lt;br&gt;&lt;/span&gt;" style="text;html=1;align=center;verticalAlign=middle;resizable=0;points=[];autosize=1;strokeColor=none;fillColor=none;" vertex="1" parent="1">
          <mxGeometry x="735" y="255" width="110" height="50" as="geometry" />
        </mxCell>
        <mxCell id="NeIWhFOcFtn_27Gf-2zO-45" value="carte host only&lt;br&gt;10.3.0.65/28" style="text;html=1;strokeColor=none;fillColor=none;align=left;verticalAlign=middle;whiteSpace=wrap;rounded=0;sketch=0;hachureGap=4;pointerEvents=0;" vertex="1" parent="1">
          <mxGeometry x="360" y="464" width="100" height="20" as="geometry" />
        </mxCell>
        <mxCell id="NeIWhFOcFtn_27Gf-2zO-48" value="" style="endArrow=none;html=1;startSize=14;endSize=14;sourcePerimeterSpacing=8;" edge="1" parent="1" source="NeIWhFOcFtn_27Gf-2zO-9" target="NeIWhFOcFtn_27Gf-2zO-45">
          <mxGeometry width="50" height="50" relative="1" as="geometry">
            <mxPoint x="416.55680473372786" y="481" as="sourcePoint" />
            <mxPoint x="417.6325443786982" y="380" as="targetPoint" />
          </mxGeometry>
        </mxCell>
        <mxCell id="NeIWhFOcFtn_27Gf-2zO-50" value="&lt;span style=&quot;text-align: left&quot;&gt;web1.server2.tp3&lt;br&gt;10.3.0.66/28&lt;br&gt;port : 80 TCP&lt;br&gt;&lt;/span&gt;" style="text;html=1;align=center;verticalAlign=middle;resizable=0;points=[];autosize=1;strokeColor=none;fillColor=none;" vertex="1" parent="1">
          <mxGeometry x="290" y="660" width="110" height="50" as="geometry" />
        </mxCell>
        <UserObject label="nfs1.server2.tp3&lt;br&gt;10.3.0.67/28&lt;br&gt;port :&amp;nbsp;20048" link="10.3.0.66/28" id="NeIWhFOcFtn_27Gf-2zO-51">
          <mxCell style="text;whiteSpace=wrap;html=1;" vertex="1" parent="1">
            <mxGeometry x="450" y="660" width="90" height="30" as="geometry" />
          </mxCell>
        </UserObject>
      </root>
    </mxGraphModel>
  </diagram>
</mxfile>
